<?xml version="1.0" standalone="no"?>
<!DOCTYPE svg PUBLIC "-//W3C//DTD SVG 20010904//EN"
 "http://www.w3.org/TR/2001/REC-SVG-20010904/DTD/svg10.dtd">
<svg version="1.0" xmlns="http://www.w3.org/2000/svg"
 width="748.000000pt" height="748.000000pt" viewBox="0 0 748.000000 748.000000"
 preserveAspectRatio="xMidYMid meet">
<metadata>
Created by potrace 1.11, written by Peter Selinger 2001-2013
</metadata>
<g transform="translate(0.000000,748.000000) scale(0.100000,-0.100000)"
fill="#000000" stroke="none">
<path d="M0 3740 l0 -3740 3740 0 3740 0 0 3740 0 3740 -3740 0 -3740 0 0
-3740z m4201 2947 c-1 -12 -15 -9 -19 4 -3 6 1 10 8 8 6 -3 11 -8 11 -12z
m-708 -74 c-73 -38 -203 -223 -203 -290 0 -13 -5 -23 -11 -23 -5 0 -8 -4 -5
-8 2 -4 -2 -41 -9 -81 -12 -61 -20 -78 -49 -104 -19 -18 -54 -59 -78 -92 -25
-33 -60 -76 -80 -95 -19 -19 -48 -55 -64 -80 -16 -25 -31 -47 -35 -50 -11 -9
-66 -124 -79 -165 -7 -22 -15 -44 -18 -50 -6 -10 -7 -12 -15 -85 -5 -39 -46
-151 -47 -126 0 5 -6 3 -13 -3 -9 -7 -24 -8 -45 -1 -18 5 -34 8 -36 7 -2 -1
-33 17 -69 41 -36 23 -69 42 -73 41 -5 -1 -22 4 -39 11 -16 7 -36 12 -44 11
-7 -1 -10 2 -7 8 8 12 -30 25 -45 15 -7 -4 -9 -3 -5 4 6 10 -14 20 -57 28 -83
15 -89 17 -98 43 -5 14 -14 35 -20 46 -22 45 60 173 192 300 157 150 268 229
485 340 265 137 345 188 496 316 45 37 85 66 90 63 5 -4 -3 -13 -19 -21z m637
-1 c0 -17 -52 -82 -61 -76 -5 3 -40 -21 -77 -53 -124 -109 -128 -97 -7 20 108
104 145 132 145 109z m-86 -207 c-3 -28 39 -85 62 -85 8 0 14 -4 14 -9 0 -5 8
-11 18 -13 11 -3 18 -13 17 -24 -1 -11 -6 -50 -10 -89 -12 -100 -11 -114 15
-172 23 -51 32 -57 77 -56 7 1 11 -3 8 -7 -7 -11 52 -33 70 -26 10 4 14 2 9
-5 -4 -7 -1 -10 7 -7 14 5 49 -32 53 -55 1 -6 5 -18 10 -26 16 -26 18 -253 2
-347 -27 -160 -36 -187 -78 -237 -17 -20 -37 -30 -78 -37 -74 -13 -177 -19
-185 -12 -3 4 -36 8 -73 10 -94 4 -96 4 -102 11 -9 10 -70 30 -65 20 4 -5 -1
-6 -9 -3 -9 3 -16 11 -16 16 0 6 -9 8 -20 5 -13 -3 -18 -1 -13 6 4 6 0 8 -9 4
-9 -3 -19 -3 -22 1 -14 13 -59 18 -269 26 -71 3 -132 8 -137 11 -5 3 -25 6
-44 7 -19 1 -33 5 -30 10 3 4 -2 8 -10 8 -8 0 -27 5 -43 12 -15 6 -32 11 -38
10 -5 -1 -37 13 -70 31 -56 32 -60 37 -73 88 -27 101 12 229 98 331 78 91 164
147 560 365 194 107 246 141 315 207 32 31 59 56 60 56 1 0 1 -11 -1 -25z
m484 -114 c30 -54 27 -61 -8 -23 -29 32 -39 62 -22 62 5 0 18 -17 30 -39z
m220 -418 c164 -324 201 -543 115 -679 -21 -33 -42 -50 -97 -76 -69 -32 -75
-33 -196 -33 -81 0 -136 5 -156 13 l-32 13 22 24 c57 64 136 202 136 240 0 8
4 15 9 15 4 0 8 8 8 18 -2 42 15 162 24 168 6 4 6 10 -1 19 -8 9 -8 14 0 17 6
2 12 14 14 28 6 45 18 69 35 75 22 7 38 37 49 90 6 25 14 39 22 37 11 -2 10 0
-1 14 -10 13 -10 16 -1 10 19 -11 6 53 -25 121 -12 30 -23 59 -23 66 1 13 3 9
98 -180z m-2627 -86 c-10 -9 -11 -8 -5 6 3 10 9 15 12 12 3 -3 0 -11 -7 -18z
m2994 -149 c143 -284 214 -545 209 -763 -5 -212 -28 -470 -49 -565 -3 -14 -8
-35 -10 -46 -8 -35 -33 -90 -47 -102 -8 -6 -19 -7 -26 -3 -17 10 -30 146 -34
331 -2 114 -6 148 -18 157 -10 8 -11 12 -3 13 9 0 9 5 0 23 -29 52 -68 107
-77 107 -6 0 -10 7 -10 15 0 7 -8 19 -17 24 -12 7 -14 10 -4 11 11 0 11 3 1
15 -6 8 -9 19 -6 24 4 5 2 12 -3 15 -11 7 -2 46 11 46 15 0 38 27 30 35 -4 3
0 12 9 18 9 7 17 17 18 22 1 6 6 26 11 45 5 19 11 62 14 95 7 90 18 145 27
145 5 0 9 10 9 23 4 178 4 178 -39 282 -23 55 -44 106 -48 113 -3 6 -3 12 0
12 3 0 26 -42 52 -92z m-1872 -568 c153 -13 496 -13 767 2 221 11 227 11 325
-11 128 -30 297 -88 411 -142 119 -57 201 -138 266 -264 72 -142 104 -261 129
-475 6 -58 19 -142 29 -188 10 -45 15 -84 11 -86 -4 -3 -52 7 -107 20 -156 40
-339 72 -418 73 -61 2 -14 -10 80 -20 125 -13 149 -31 31 -22 -79 5 -90 4
-139 -20 -50 -24 -67 -26 -303 -37 -137 -6 -308 -13 -380 -15 -84 -3 -160 -11
-214 -24 -86 -21 -106 -20 -97 5 8 20 -110 20 -130 -1 -17 -16 -44 -10 -44 11
0 11 -17 14 -74 14 -49 0 -110 10 -187 30 -63 16 -121 30 -129 29 -8 0 39 -15
104 -32 66 -18 121 -38 124 -44 6 -20 -28 -16 -145 17 -60 17 -182 46 -273 66
-90 19 -167 37 -169 40 -3 3 24 2 59 -2 119 -11 55 6 -81 22 -156 19 -433 22
-534 6 -38 -6 -70 -10 -71 -9 -4 4 37 231 62 347 42 190 138 396 234 503 36
41 67 61 157 104 62 29 133 58 158 64 100 25 390 65 413 57 13 -4 74 -12 135
-18z m-428 -1214 c215 -40 314 -88 344 -169 44 -115 -54 -454 -179 -621 -100
-135 -199 -173 -420 -163 -190 9 -307 45 -397 122 -103 88 -146 297 -122 594
13 168 50 217 189 248 79 18 466 10 585 -11z m1878 -26 c141 -17 203 -44 240
-107 29 -50 32 -77 30 -259 -4 -333 -63 -470 -237 -549 -90 -41 -150 -54 -295
-61 -288 -16 -437 58 -540 266 -80 164 -138 432 -112 520 17 59 72 115 134
138 167 63 499 84 780 52z m-1146 -224 c29 -25 65 -109 127 -296 38 -117 99
-263 137 -326 72 -121 192 -215 312 -244 139 -34 449 -30 577 7 227 65 347
196 394 431 9 42 23 136 32 207 18 142 22 155 67 203 44 46 60 43 54 -10 -3
-24 -11 -151 -17 -284 -14 -256 -11 -281 33 -308 26 -16 33 3 41 112 4 54 9
135 13 182 6 89 22 125 53 115 10 -3 26 5 41 21 114 123 276 61 323 -124 31
-117 12 -271 -59 -484 -93 -282 -180 -431 -271 -467 -30 -12 -66 -5 -166 34
-14 5 -28 -15 -73 -106 -77 -153 -169 -291 -250 -378 -154 -163 -453 -366
-735 -499 -255 -120 -322 -136 -591 -134 -326 2 -487 25 -614 89 -218 109
-572 398 -720 588 -105 135 -162 267 -209 487 -6 24 -10 27 -35 22 -83 -17
-135 74 -199 346 -74 315 -91 511 -56 630 17 56 77 130 106 130 16 0 28 -80
28 -187 0 -133 60 -322 129 -404 38 -45 127 -105 195 -132 114 -44 424 -74
551 -52 129 22 238 86 310 183 31 41 145 257 152 287 4 16 91 234 115 288 32
70 68 97 128 97 37 0 55 -6 77 -24z m-1389 -603 c57 -55 41 -63 -22 -11 -47
38 -89 100 -109 162 -32 93 -16 91 31 -4 33 -68 62 -110 100 -147z m2787 53
c-50 -106 -150 -180 -300 -222 -80 -22 -362 -31 -448 -14 -71 13 -136 40 -189
76 -59 41 -53 58 7 19 92 -58 162 -77 315 -83 187 -7 325 17 436 75 58 31 139
107 159 150 20 43 36 65 42 59 3 -2 -7 -29 -22 -60z"/>
<path d="M4448 3993 c28 -2 76 -2 105 0 28 2 5 3 -53 3 -58 0 -81 -1 -52 -3z"/>
<path d="M2895 3974 c33 -7 67 -13 75 -12 23 1 -82 26 -110 26 -14 0 2 -6 35
-14z"/>
<path d="M4268 3983 c12 -2 30 -2 40 0 9 3 -1 5 -23 4 -22 0 -30 -2 -17 -4z"/>
<path d="M4173 3973 c9 -2 25 -2 35 0 9 3 1 5 -18 5 -19 0 -27 -2 -17 -5z"/>
<path d="M4108 3963 c6 -2 18 -2 25 0 6 3 1 5 -13 5 -14 0 -19 -2 -12 -5z"/>
<path d="M3028 3953 c7 -3 16 -2 19 1 4 3 -2 6 -13 5 -11 0 -14 -3 -6 -6z"/>
<path d="M4008 3953 c7 -3 16 -2 19 1 4 3 -2 6 -13 5 -11 0 -14 -3 -6 -6z"/>
<path d="M3943 3943 c9 -2 23 -2 30 0 6 3 -1 5 -18 5 -16 0 -22 -2 -12 -5z"/>
<path d="M3888 3933 c6 -2 18 -2 25 0 6 3 1 5 -13 5 -14 0 -19 -2 -12 -5z"/>
<path d="M3741 3909 c-79 -17 -113 -30 -80 -29 28 1 213 48 189 48 -14 0 -63
-8 -109 -19z"/>
<path d="M2514 3586 c-45 -12 -121 -61 -107 -69 4 -3 40 8 78 24 81 33 195 39
280 14 l50 -14 -54 6 c-52 6 -53 6 -42 -16 18 -33 9 -72 -21 -94 -27 -20 -29
-20 -63 -4 l-35 17 -1 -33 c-4 -101 6 -113 105 -126 176 -22 175 -22 196 -1
32 32 46 94 31 148 -7 26 -18 50 -24 54 -9 6 -9 8 1 8 13 0 75 -42 97 -66 6
-6 24 -19 40 -28 26 -16 24 -12 -13 26 -56 59 -181 132 -258 152 -70 18 -198
19 -260 2z"/>
<path d="M4350 3563 c-130 -10 -276 -71 -361 -150 -68 -64 -61 -72 14 -17 127
94 239 134 375 134 102 0 213 -34 301 -90 35 -23 65 -39 68 -37 8 9 -76 79
-129 108 -29 15 -63 28 -76 29 -13 0 -31 4 -40 9 -20 10 -101 17 -152 14z"/>
<path d="M4278 3514 c-3 -3 -1 -18 5 -34 22 -59 -58 -116 -104 -74 -26 23 -33
13 -33 -50 0 -61 21 -101 62 -117 16 -7 70 -9 136 -6 124 6 141 15 156 83 16
72 -14 148 -73 184 -30 19 -135 29 -149 14z"/>
<path d="M4540 3486 c0 -2 7 -9 15 -16 13 -11 14 -10 9 4 -5 14 -24 23 -24 12z"/>
<path d="M4570 3441 c0 -6 4 -13 10 -16 6 -3 7 1 4 9 -7 18 -14 21 -14 7z"/>
<path d="M4072 3428 c-7 -7 -11 -37 -11 -72 l1 -61 8 53 c4 29 16 62 26 73 14
15 14 19 3 19 -8 0 -20 -5 -27 -12z"/>
</g>
</svg>
