<svg width="50" height="50" viewBox="0 0 50 50" fill="none" xmlns="http://www.w3.org/2000/svg">
<path d="M25 0.625C11.25 0.625 0 11.7969 0 25.625C0 36.6406 7.1875 46.0156 17.1094 49.375C18.3594 49.6094 18.8281 48.8281 18.8281 48.2031C18.8281 47.6562 18.8281 46.0156 18.75 43.9062C11.7969 45.4688 10.3125 40.5469 10.3125 40.5469C9.14062 37.6562 7.5 36.9531 7.5 36.9531C5.23438 35.3906 7.65625 35.3906 7.65625 35.3906C10.1562 35.5469 11.4844 37.9688 11.4844 37.9688C13.6719 41.7969 17.3438 40.7031 18.75 40C18.9844 38.3594 19.6094 37.2656 20.3125 36.6406C14.8438 36.0938 8.98438 33.9062 8.98438 24.375C8.98438 21.6406 10 19.4531 11.5625 17.7344C11.3281 17.1094 10.4688 14.6094 11.7969 11.0938C11.7969 11.0938 13.9062 10.3906 18.6719 13.6719C20.7031 13.125 22.8125 12.8125 24.9219 12.8125C27.0312 12.8125 29.2188 13.0469 31.1719 13.6719C35.9375 10.4688 37.9688 11.0938 37.9688 11.0938C39.2969 14.5312 38.5156 17.1094 38.2031 17.7344C39.7656 19.4531 40.7812 21.7188 40.7812 24.375C40.7812 33.9062 34.9219 36.0938 29.375 36.6406C30.2344 37.4219 31.0938 38.9844 31.0938 41.25C31.0938 44.6094 31.0156 47.2656 31.0156 48.0469C31.0156 48.75 31.4844 49.4531 32.7344 49.2188C42.8125 45.9375 50 36.5625 50 25.5469C49.9219 11.7969 38.75 0.625 25 0.625Z" fill="white"/>
</svg>
