<svg width="30" height="30" viewBox="0 0 30 30" fill="none" xmlns="http://www.w3.org/2000/svg">
<path d="M27.7969 0H2.20312C0.984375 0 0 0.984375 0 2.15625V27.8438C0 29.0156 0.984375 30 2.20312 30H27.75C28.9688 30 29.9531 29.0156 29.9531 27.8438V2.15625C30 0.984375 29.0156 0 27.7969 0ZM8.90625 25.5469H4.45313V11.25H8.90625V25.5469ZM6.65625 9.28125C5.25 9.28125 4.07812 8.10938 4.07812 6.70312C4.07812 5.29688 5.25 4.125 6.65625 4.125C8.0625 4.125 9.23438 5.29688 9.23438 6.70312C9.23438 8.15625 8.10938 9.28125 6.65625 9.28125ZM25.5469 25.5469H21.0938V18.6094C21.0938 16.9688 21.0469 14.8125 18.7969 14.8125C16.5 14.8125 16.125 16.6406 16.125 18.4688V25.5469H11.6719V11.25H15.9375V13.2188H15.9844C16.5938 12.0938 18.0469 10.9219 20.2031 10.9219C24.7031 10.9219 25.5469 13.875 25.5469 17.7656V25.5469Z" fill="white"/>
</svg>
